<svg id="visual" viewBox="0 0 960 120" width="960" height="120" xmlns="http://www.w3.org/2000/svg" xmlns:xlink="http://www.w3.org/1999/xlink" version="1.1"><rect x="0" y="0" width="960" height="120" fill="#000813"></rect><path d="M0 85L26.7 85.2C53.3 85.3 106.7 85.7 160 89.2C213.3 92.7 266.7 99.3 320 98C373.3 96.7 426.7 87.3 480 76.2C533.3 65 586.7 52 640 57.8C693.3 63.7 746.7 88.3 800 97.8C853.3 107.3 906.7 101.7 933.3 98.8L960 96L960 0L933.3 0C906.7 0 853.3 0 800 0C746.7 0 693.3 0 640 0C586.7 0 533.3 0 480 0C426.7 0 373.3 0 320 0C266.7 0 213.3 0 160 0C106.7 0 53.3 0 26.7 0L0 0Z" fill="#0a0019" stroke-linecap="round" stroke-linejoin="miter"></path></svg>